<svg width="28" height="20" viewBox="0 0 28 20" fill="none" xmlns="http://www.w3.org/2000/svg">
    <circle cx="20" cy="6" r="2" fill="#05B976" />
    <path d="M9.60722 7.68256L4.2532 12.997C4.09114 13.1579 4 13.3768 4 13.6051V15.1432C4 15.6164 4.3836 16 4.8568 16H23.1432C23.6164 16 24 15.6164 24 15.1432V13.071C24 12.8073 23.8786 12.5584 23.6709 12.396L19.614 9.22398C19.2888 8.96969 18.8285 8.98349 18.5191 9.2568L15.3588 12.0483C14.9879 12.3759 14.4173 12.3221 14.1142 11.9308L10.8882 7.76597C10.5729 7.35901 9.97256 7.31991 9.60722 7.68256Z" fill="#D6EFE7" />
    <path d="M1 15.087V16C1 17.6569 2.34315 19 4 19H24C25.6569 19 27 17.6569 27 16V4C27 2.34315 25.6569 1 24 1H4C2.34315 1 1 2.34315 1 4V8.82609" stroke="#EBEBEB" stroke-width="2" stroke-linecap="round" />
</svg>
