<svg width="32" height="24" viewBox="0 0 32 24" fill="none" xmlns="http://www.w3.org/2000/svg">
    <path d="M11 6C11.5523 6 12 6.44772 12 7C12 7.55228 11.5523 8 11 8L7 8C6.44772 8 6 7.55228 6 7C6 6.44772 6.44772 6 7 6L11 6Z" fill="#05B976" />
    <path d="M18.2414 3H6.43C4.53566 3 3 4.53566 3 6.43V17.57C3 19.4643 4.53566 21 6.43 21H25.57C27.4643 21 29 19.4643 29 17.57V6.43C29 4.53566 27.4643 3 25.57 3H24.5225" stroke="#EBEBEB" stroke-width="2" stroke-linecap="round" />
    <path fill-rule="evenodd" clip-rule="evenodd" d="M19 14V18H13V14H19ZM20 14V18H25.1C25.5971 18 26 17.5971 26 17.1V14H20ZM26 13H20V9.22754H25.1C25.5971 9.22754 26 9.63048 26 10.1275V13ZM19 13H13V9.22754H19V13ZM12 13V9.22754H6.9C6.40294 9.22754 6 9.63048 6 10.1275V13H12ZM6 14V17.1C6 17.5971 6.40294 18 6.9 18H12V14H6Z" fill="#D6EFE7" />
</svg>
